Coordinates
version=1
nRows=24
nColumns=34
inDegrees=no

Units are S.I. units (second, meters, Newtons, ...)
If the header above contains a line with 'inDegrees', this indicates whether rotational values are in degrees (yes) or radians (no).

endheader
time	pelvis_tilt	pelvis_list	pelvis_rotation	pelvis_tx	pelvis_ty	pelvis_tz	hip_flexion_r	hip_adduction_r	hip_rotation_r	knee_angle_r	ankle_angle_r	subtalar_angle_r	mtp_angle_r	hip_flexion_l	hip_adduction_l	hip_rotation_l	knee_angle_l	ankle_angle_l	subtalar_angle_l	mtp_angle_l	lumbar_extension	lumbar_bending	lumbar_rotation	arm_flex_r	arm_add_r	arm_rot_r	elbow_flex_r	pro_sup_r	arm_flex_l	arm_add_l	arm_rot_l	elbow_flex_l	pro_sup_l
0	-0.0615735	-0.0258113	0.00559935	-0.119786	0.962471	-0.533821	0.0706761	-0.0300758	-0.225586	0.212745	0.414352	0.137279	-0.126302	0.150688	-0.250512	-0.26818	0.313	0.198911	0.109727	-0.126311	-0.0916866	0.0598588	-0.0478943	0.0824463	-0.124305	0.0276181	0.542033	1.81287	0.071713	-0.0896299	0.0352544	0.543917	1.69905
0.01	-0.0612827	-0.0259106	0.00541906	-0.119962	0.962539	-0.533853	0.0705639	-0.0299192	-0.225874	0.212439	0.414193	0.137633	-0.126302	0.150562	-0.25069	-0.268278	0.312896	0.198908	0.10971	-0.126311	-0.0917324	0.0600048	-0.0474744	0.0825264	-0.12401	0.0263716	0.541847	1.80738	0.071815	-0.0897055	0.0357269	0.544174	1.69613
0.02	-0.0610554	-0.0260282	0.00524255	-0.120144	0.962597	-0.533894	0.0705794	-0.029753	-0.226063	0.212218	0.413988	0.137774	-0.126302	0.150534	-0.25087	-0.26833	0.312834	0.198921	0.10962	-0.126311	-0.091728	0.0602465	-0.0472451	0.0826739	-0.123988	0.0262893	0.541837	1.80148	0.0718183	-0.089827	0.0363261	0.544543	1.69295
0.03	-0.0608914	-0.0261645	0.00506977	-0.120332	0.962646	-0.533944	0.0707184	-0.0295738	-0.226143	0.212071	0.413731	0.137689	-0.126302	0.150605	-0.251054	-0.268334	0.312814	0.198948	0.109459	-0.126311	-0.0916741	0.0605843	-0.0472017	0.082887	-0.124241	0.0273641	0.542003	1.79521	0.0717277	-0.0899954	0.0370531	0.545016	1.68952
0.04	-0.0607901	-0.0263208	0.0048989	-0.120527	0.962688	-0.534002	0.0709724	-0.0293743	-0.226093	0.211983	0.413407	0.137355	-0.126302	0.150772	-0.251244	-0.268292	0.312834	0.198984	0.109234	-0.126311	-0.0915729	0.0610185	-0.0473305	0.083163	-0.124772	0.0295711	0.54234	1.78874	0.0715561	-0.0902146	0.0379082	0.545567	1.68595
0.05	-0.0607505	-0.0264978	0.00472451	-0.120727	0.962721	-0.534067	0.071332	-0.0291454	-0.22588	0.211935	0.412998	0.136743	-0.126302	0.151032	-0.251445	-0.26821	0.31289	0.199024	0.108958	-0.126311	-0.0914281	0.0615482	-0.0476054	0.0834995	-0.125585	0.0328515	0.542835	1.78234	0.071329	-0.0904912	0.0388871	0.546147	1.68242
0.06	-0.0607715	-0.0266945	0.00453761	-0.120935	0.962747	-0.534138	0.0717917	-0.0288816	-0.225477	0.211914	0.41249	0.135838	-0.126302	0.151382	-0.251662	-0.268101	0.312981	0.199063	0.108645	-0.126311	-0.0912437	0.062169	-0.0479871	0.0838978	-0.12668	0.0370954	0.543466	1.77646	0.0710877	-0.0908329	0.0399758	0.546676	1.67922
0.07	-0.0608531	-0.0269074	0.00432767	-0.121152	0.962766	-0.534212	0.0723554	-0.028584	-0.224877	0.211924	0.411883	0.134657	-0.126302	0.151822	-0.251898	-0.267983	0.313107	0.199095	0.108311	-0.126311	-0.0910213	0.062871	-0.048426	0.0843652	-0.128052	0.04213	0.544197	1.77162	0.0708914	-0.0912442	0.0411441	0.547047	1.67671
0.08	-0.060997	-0.0271307	0.00408539	-0.121379	0.962779	-0.534287	0.0730381	-0.0282627	-0.224103	0.211986	0.411194	0.133255	-0.126302	0.152355	-0.252153	-0.267871	0.313273	0.199114	0.107965	-0.126311	-0.0907589	0.0636386	-0.0488667	0.0849168	-0.129684	0.0477239	0.544986	1.76829	0.070818	-0.0917213	0.0423396	0.547129	1.67522
0.09	-0.061205	-0.0273576	0.00380445	-0.121618	0.962787	-0.534362	0.0738644	-0.0279354	-0.22321	0.212138	0.410454	0.131724	-0.126302	0.152991	-0.252427	-0.267773	0.313489	0.199112	0.107607	-0.126311	-0.0904523	0.0644524	-0.0492559	0.0855765	-0.131553	0.0536124	0.5458	1.76678	0.0709597	-0.0922475	0.0434821	0.546791	1.67501
0.1	-0.0614764	-0.027581	0.00348218	-0.121872	0.96279	-0.534436	0.0748621	-0.0276255	-0.22228	0.212431	0.409704	0.130182	-0.126302	0.153739	-0.252712	-0.267686	0.313765	0.199075	0.107222	-0.126311	-0.0900993	0.0652919	-0.0495495	0.086374	-0.133636	0.0595469	0.546641	1.76709	0.0714148	-0.092794	0.0444664	0.545928	1.67614
0.11	-0.0618012	-0.027794	0.00311945	-0.122146	0.96279	-0.534507	0.07605	-0.0273578	-0.221404	0.212915	0.40898	0.128744	-0.126302	0.154603	-0.253	-0.267589	0.314113	0.198985	0.106773	-0.126311	-0.0897103	0.0661392	-0.0497172	0.0873422	-0.135919	0.0653504	0.547571	1.76878	0.0722766	-0.0933282	0.0451831	0.544499	1.67839
0.12	-0.0621528	-0.0279923	0.00272027	-0.122441	0.962789	-0.534575	0.0774226	-0.0271509	-0.220655	0.213628	0.408309	0.127496	-0.126302	0.155567	-0.25328	-0.267454	0.314541	0.198819	0.106207	-0.126311	-0.0893192	0.0669808	-0.0497414	0.0885152	-0.138401	0.07095	0.548718	1.77106	0.0736222	-0.0938292	0.0455484	0.542561	1.68132
0.13	-0.0624825	-0.0281785	0.00229078	-0.122764	0.962793	-0.53464	0.0789371	-0.0270053	-0.220064	0.21458	0.407693	0.126457	-0.126302	0.156587	-0.253548	-0.267245	0.315051	0.198557	0.105469	-0.126311	-0.0889928	0.0678119	-0.0496132	0.0899331	-0.141093	0.0763586	0.550247	1.77309	0.0755005	-0.0943034	0.0455101	0.540276	1.68451
0.14	-0.0627234	-0.0283645	0.00183693	-0.123119	0.962806	-0.534699	0.080514	-0.026898	-0.219603	0.21575	0.407104	0.12556	-0.126302	0.1576	-0.253811	-0.266931	0.31564	0.198182	0.10451	-0.126311	-0.0888258	0.0686371	-0.0493305	0.0916468	-0.14401	0.08166	0.552334	1.77418	0.077924	-0.0947946	0.0450713	0.537921	1.68767
0.15	-0.0628033	-0.028567	0.00136065	-0.123511	0.962836	-0.534752	0.0820562	-0.0267896	-0.219188	0.217088	0.406491	0.124674	-0.126302	0.158531	-0.254086	-0.266496	0.316304	0.197684	0.103307	-0.126311	-0.088925	0.069468	-0.0488939	0.0937211	-0.147166	0.0869838	0.55515	1.77386	0.0808711	-0.0953844	0.0443269	0.535878	1.69051
0.16	-0.0626651	-0.0287988	0.000855842	-0.123944	0.962886	-0.534794	0.0834813	-0.0266397	-0.218698	0.21854	0.405793	0.123629	-0.126302	0.159318	-0.254392	-0.265943	0.317037	0.19706	0.10186	-0.126311	-0.089384	0.0703172	-0.0483062	0.0962351	-0.15058	0.092472	0.558846	1.77202	0.0842947	-0.0961801	0.0434709	0.534601	1.69274
0.17	-0.0622843	-0.0290607	0.000307732	-0.124426	0.96296	-0.534825	0.0847535	-0.026424	-0.218003	0.220066	0.404954	0.122251	-0.126302	0.159937	-0.254736	-0.265293	0.317839	0.196305	0.100189	-0.126311	-0.0902613	0.0711923	-0.0475729	0.0992809	-0.15427	0.0982384	0.563557	1.76881	0.088139	-0.0972939	0.0427726	0.534563	1.6941
0.18	-0.0616733	-0.0293379	-0.000302587	-0.124962	0.963056	-0.534844	0.085898	-0.0261447	-0.21699	0.221663	0.403941	0.120402	-0.126302	0.160405	-0.25511	-0.264581	0.318719	0.195412	0.0983271	-0.126311	-0.0915716	0.0720902	-0.0467038	0.102959	-0.158256	0.104334	0.569391	1.76466	0.0923593	-0.0988196	0.0425238	0.536196	1.69438
0.19	-0.0608755	-0.0296014	-0.000990732	-0.12556	0.96317	-0.534852	0.0869953	-0.0258323	-0.215596	0.223373	0.402749	0.118	-0.126302	0.160783	-0.255491	-0.263838	0.319694	0.194373	0.0963094	-0.126311	-0.0932917	0.0729951	-0.0457136	0.10737	-0.162552	0.110747	0.576441	1.76008	0.0969439	-0.10081	0.0429622	0.539843	1.6935
0.2	-0.0599516	-0.0298134	-0.00176284	-0.126229	0.963298	-0.53485	0.0881648	-0.0255387	-0.21381	0.225272	0.401401	0.115017	-0.126302	0.161161	-0.255845	-0.263091	0.320793	0.193176	0.0941644	-0.126311	-0.0953748	0.0738797	-0.0446248	0.112619	-0.167172	0.117439	0.584785	1.75549	0.101931	-0.103259	0.0441928	0.545717	1.6916
0.21	-0.0589707	-0.0299328	-0.00261247	-0.126979	0.963433	-0.534841	0.0895523	-0.0253302	-0.211678	0.227475	0.399947	0.111494	-0.126302	0.16165	-0.256132	-0.262354	0.322062	0.191814	0.091908	-0.126311	-0.0977634	0.074709	-0.0434668	0.118808	-0.172119	0.124356	0.594477	1.75127	0.107418	-0.106097	0.046151	0.553886	1.68907
0.22	-0.058008	-0.0299221	-0.00352022	-0.127819	0.963568	-0.534831	0.0913243	-0.0252764	-0.209291	0.230119	0.398459	0.107514	-0.126302	0.162388	-0.256315	-0.261622	0.323559	0.190285	0.0895366	-0.126311	-0.100395	0.0754475	-0.0422783	0.126052	-0.177384	0.131443	0.605527	1.74769	0.113547	-0.109218	0.0486304	0.564302	1.68645
0.23	-0.0571488	-0.0297551	-0.00445631	-0.128763	0.963693	-0.534821	0.0936637	-0.0254328	-0.206742	0.233353	0.397	0.103149	-0.126302	0.163539	-0.256366	-0.260857	0.325362	0.188587	0.0870191	-0.126311	-0.103199	0.0760678	-0.0411065	0.134477	-0.182931	0.138663	0.617898	1.74485	0.120487	-0.11251	0.0513778	0.576864	1.68417
